<svg xmlns="http://www.w3.org/2000/svg" viewBox="0 0 200 200" fill="none" stroke="#ff6a00" stroke-width="2"><path d="M 101,103 L 102,102 L 109,102 L 110,103 L 113,103 L 114,104 L 116,104 L 117,105 L 118,105 L 119,106 L 120,106 L 121,107 L 122,107 L 123,108 L 124,108 L 126,110 L 127,110 L 130,113 L 131,113 L 136,118 L 136,119 L 139,122 L 139,123 L 141,125 L 141,126 L 142,127 L 142,128 L 143,129 L 143,130 L 144,131 L 144,132 L 145,133 L 145,135 L 146,136 L 146,139 L 147,140 L 147,147 L 148,148 L 148,151 L 147,152 L 147,159 L 146,160 L 146,163 L 145,164 L 145,166 L 144,167 L 144,168 L 143,169 L 143,170 L 142,171 L 142,172 L 141,173 L 141,174 L 139,176 L 139,177 L 136,180 L 136,181 L 131,186 L 130,186 L 127,189 L 126,189 L 124,191 L 123,191 L 122,192 L 121,192 L 120,193 L 119,193 L 118,194 L 117,194 L 116,195 L 114,195 L 113,196 L 110,196 L 109,197 L 102,197 L 101,196 Z"/><path d="M 196,102 L 197,101 L 198,102 L 198,196 L 197,197 L 190,197 L 189,196 L 186,196 L 185,195 L 183,195 L 182,194 L 181,194 L 180,193 L 179,193 L 178,192 L 177,192 L 176,191 L 175,191 L 173,189 L 172,189 L 169,186 L 168,186 L 163,181 L 163,180 L 160,177 L 160,176 L 158,174 L 158,173 L 157,172 L 157,171 L 156,170 L 156,169 L 155,168 L 155,167 L 154,166 L 154,164 L 153,163 L 153,160 L 152,159 L 152,152 L 151,151 L 151,148 L 152,147 L 152,140 L 153,139 L 153,136 L 154,135 L 154,133 L 155,132 L 155,131 L 156,130 L 156,129 L 157,128 L 157,127 L 158,126 L 158,125 L 160,123 L 160,122 L 163,119 L 163,118 L 168,113 L 169,113 L 172,110 L 173,110 L 175,108 L 176,108 L 178,106 L 180,106 L 181,105 L 182,105 L 183,104 L 185,104 L 186,103 L 189,103 L 190,102 Z"/><path d="M 47,102 L 48,101 L 51,101 L 52,102 L 59,102 L 60,103 L 63,103 L 64,104 L 66,104 L 67,105 L 68,105 L 69,106 L 70,106 L 71,107 L 72,107 L 73,108 L 74,108 L 76,110 L 77,110 L 80,113 L 81,113 L 86,118 L 86,119 L 89,122 L 89,123 L 91,125 L 91,126 L 92,127 L 92,128 L 93,129 L 93,130 L 94,131 L 94,132 L 95,133 L 95,135 L 96,136 L 96,139 L 97,140 L 97,147 L 98,148 L 98,151 L 97,152 L 97,159 L 96,160 L 96,163 L 95,164 L 95,166 L 94,167 L 94,168 L 93,169 L 93,170 L 92,171 L 92,172 L 91,173 L 91,174 L 89,176 L 89,177 L 86,180 L 86,181 L 81,186 L 80,186 L 76,190 L 75,190 L 74,191 L 73,191 L 71,193 L 69,193 L 68,194 L 67,194 L 66,195 L 64,195 L 63,196 L 60,196 L 59,197 L 52,197 L 51,198 L 48,198 L 47,197 L 40,197 L 39,196 L 36,196 L 35,195 L 33,195 L 32,194 L 31,194 L 30,193 L 29,193 L 28,192 L 27,192 L 26,191 L 25,191 L 23,189 L 22,189 L 19,186 L 18,186 L 13,181 L 13,180 L 10,177 L 10,176 L 8,174 L 8,173 L 7,172 L 7,171 L 6,170 L 6,169 L 5,168 L 5,167 L 4,166 L 4,164 L 3,163 L 3,160 L 2,159 L 2,152 L 1,151 L 1,148 L 2,147 L 2,140 L 3,139 L 3,136 L 4,135 L 4,133 L 5,132 L 5,131 L 6,130 L 6,129 L 7,128 L 7,127 L 8,126 L 8,125 L 10,123 L 10,122 L 13,119 L 13,118 L 18,113 L 19,113 L 22,110 L 23,110 L 25,108 L 26,108 L 27,107 L 28,107 L 29,106 L 30,106 L 31,105 L 32,105 L 33,104 L 35,104 L 36,103 L 39,103 L 40,102 Z"/><path d="M 108,100 L 109,99 L 189,99 L 190,100 L 189,101 L 186,101 L 185,102 L 183,102 L 182,103 L 180,103 L 179,104 L 178,104 L 177,105 L 176,105 L 175,106 L 174,106 L 172,108 L 171,108 L 169,110 L 168,110 L 161,117 L 161,118 L 158,121 L 158,122 L 156,124 L 156,125 L 155,126 L 155,127 L 154,128 L 154,129 L 153,130 L 153,132 L 152,133 L 152,135 L 151,136 L 151,139 L 150,140 L 149,140 L 148,139 L 148,136 L 147,135 L 147,133 L 146,132 L 146,130 L 145,129 L 145,128 L 144,127 L 144,126 L 143,125 L 143,124 L 141,122 L 141,121 L 139,119 L 139,118 L 132,111 L 131,111 L 128,108 L 127,108 L 125,106 L 124,106 L 123,105 L 122,105 L 121,104 L 120,104 L 119,103 L 117,103 L 116,102 L 114,102 L 113,101 L 109,101 Z"/><path d="M 59,100 L 60,99 L 99,99 L 100,100 L 100,139 L 99,140 L 98,139 L 98,136 L 97,135 L 97,133 L 96,132 L 96,130 L 95,129 L 95,128 L 94,127 L 94,126 L 93,125 L 93,124 L 91,122 L 91,121 L 89,119 L 89,118 L 82,111 L 81,111 L 78,108 L 77,108 L 75,106 L 74,106 L 73,105 L 72,105 L 71,104 L 70,104 L 69,103 L 67,103 L 66,102 L 64,102 L 63,101 L 60,101 Z"/><path d="M 149,53 L 150,53 L 194,97 L 193,98 L 106,98 L 105,97 Z"/><path d="M 99,50 L 100,49 L 148,49 L 149,50 L 100,99 L 99,98 Z"/><path d="M 149,3 L 150,3 L 194,47 L 193,48 L 106,48 L 105,47 Z"/><path d="M 95,2 L 96,1 L 97,1 L 98,2 L 98,97 L 97,98 L 2,98 L 1,97 L 1,96 L 2,95 L 2,86 L 3,85 L 3,80 L 4,79 L 4,76 L 5,75 L 5,72 L 6,71 L 6,69 L 7,68 L 7,66 L 8,65 L 8,64 L 9,63 L 9,61 L 10,60 L 10,59 L 11,58 L 11,57 L 12,56 L 12,55 L 13,54 L 13,53 L 14,52 L 14,51 L 16,49 L 16,48 L 17,47 L 17,46 L 20,43 L 20,42 L 22,40 L 22,39 L 39,22 L 40,22 L 43,19 L 44,19 L 46,17 L 47,17 L 48,16 L 49,16 L 51,14 L 52,14 L 53,13 L 54,13 L 55,12 L 56,12 L 57,11 L 58,11 L 59,10 L 60,10 L 61,9 L 63,9 L 64,8 L 65,8 L 66,7 L 68,7 L 69,6 L 71,6 L 72,5 L 75,5 L 76,4 L 79,4 L 80,3 L 85,3 L 86,2 Z"/><path d="M 86,0 L 85,1 L 80,1 L 79,2 L 76,2 L 75,3 L 72,3 L 71,4 L 69,4 L 68,5 L 66,5 L 65,6 L 64,6 L 63,7 L 61,7 L 60,8 L 58,8 L 57,9 L 56,9 L 55,10 L 54,10 L 53,11 L 52,11 L 51,12 L 50,12 L 48,14 L 47,14 L 45,16 L 44,16 L 42,18 L 41,18 L 38,21 L 37,21 L 32,26 L 31,26 L 26,31 L 26,32 L 21,37 L 21,38 L 18,41 L 18,42 L 16,44 L 16,45 L 14,47 L 14,48 L 13,49 L 13,50 L 11,52 L 11,53 L 10,54 L 10,55 L 9,56 L 9,58 L 8,59 L 8,60 L 7,61 L 7,62 L 6,63 L 6,65 L 5,66 L 5,68 L 4,69 L 4,71 L 3,72 L 3,75 L 2,76 L 2,79 L 1,80 L 1,85 L 0,86 L 0,99 L 39,99 L 40,100 L 39,101 L 36,101 L 35,102 L 33,102 L 32,103 L 31,103 L 30,104 L 28,104 L 27,105 L 26,105 L 25,106 L 24,106 L 22,108 L 21,108 L 19,110 L 18,110 L 11,117 L 11,118 L 8,121 L 8,122 L 6,124 L 6,125 L 5,126 L 5,127 L 4,128 L 4,129 L 3,130 L 3,132 L 2,133 L 2,135 L 1,136 L 1,139 L 0,140 L 0,159 L 1,160 L 1,163 L 2,164 L 2,166 L 3,167 L 3,169 L 4,170 L 4,171 L 5,172 L 5,173 L 6,174 L 6,175 L 8,177 L 8,178 L 10,180 L 10,181 L 17,188 L 18,188 L 21,191 L 22,191 L 24,193 L 25,193 L 26,194 L 27,194 L 28,195 L 29,195 L 30,196 L 32,196 L 33,197 L 35,197 L 36,198 L 39,198 L 40,199 L 59,199 L 60,198 L 63,198 L 64,197 L 66,197 L 67,196 L 69,196 L 70,195 L 71,195 L 72,194 L 73,194 L 74,193 L 75,193 L 77,191 L 78,191 L 80,189 L 81,189 L 88,182 L 88,181 L 91,178 L 91,177 L 93,175 L 93,174 L 94,173 L 94,172 L 95,171 L 95,170 L 96,169 L 96,167 L 97,166 L 97,164 L 98,163 L 98,160 L 99,159 L 100,160 L 100,199 L 109,199 L 110,198 L 113,198 L 114,197 L 116,197 L 117,196 L 119,196 L 120,195 L 121,195 L 122,194 L 123,194 L 124,193 L 125,193 L 127,191 L 128,191 L 130,189 L 131,189 L 138,182 L 138,181 L 141,178 L 141,177 L 143,175 L 143,174 L 144,173 L 144,172 L 145,171 L 145,170 L 146,169 L 146,167 L 147,166 L 147,164 L 148,163 L 148,160 L 149,159 L 150,159 L 151,160 L 151,163 L 152,164 L 152,166 L 153,167 L 153,169 L 154,170 L 154,171 L 155,172 L 155,173 L 156,174 L 156,175 L 158,177 L 158,178 L 160,180 L 160,181 L 167,188 L 168,188 L 171,191 L 172,191 L 174,193 L 175,193 L 176,194 L 177,194 L 178,195 L 179,195 L 180,196 L 182,196 L 183,197 L 185,197 L 186,198 L 189,198 L 190,199 L 199,199 L 199,99 L 150,50 L 151,49 L 199,49 L 150,0 L 149,0 L 100,49 L 99,48 L 99,0 Z"/></svg>